<svg width="44" height="54" viewBox="0 0 44 54" fill="none" xmlns="http://www.w3.org/2000/svg">
<path d="M23.3734 10.5733C23.1946 10.5757 23.0172 10.5433 22.8512 10.4781C22.6852 10.4129 22.5339 10.3162 22.4062 10.1934C22.2784 10.0706 22.1766 9.92424 22.1066 9.7627C22.0367 9.60116 21.9999 9.42764 21.9985 9.2521C21.9985 4.14011 26.3102 0.000122215 31.6192 0.000122215C31.7979 -0.00225559 31.9754 0.0300845 32.1414 0.0952832C32.3074 0.160482 32.4586 0.257253 32.5864 0.380033C32.7142 0.502814 32.816 0.649181 32.8859 0.81072C32.9559 0.97226 32.9926 1.14578 32.9941 1.32132C32.9941 6.43331 28.686 10.5733 23.3734 10.5733ZM43.447 38.4048C43.9787 38.7864 44.151 39.4848 43.8503 40.0536C39.0107 49.3632 35.1499 54 31.6228 54C29.9803 54 28.3671 53.4888 26.7942 52.4952C25.6645 51.7855 24.3574 51.3952 23.0166 51.3672C21.6758 51.3393 20.353 51.6748 19.1937 52.3368C17.2871 53.4348 15.4723 54 13.7491 54C8.56108 54 0 38.6388 0 30.2113C0 21.2113 4.90933 14.3497 12.3742 14.3497C15.8866 14.3473 18.9175 14.8501 21.4669 15.8581C22.5448 16.2829 23.7657 16.2541 24.818 15.7681C26.8858 14.8105 29.6136 14.3497 32.9941 14.3497C37.1261 14.3497 40.7302 16.3297 43.722 20.1637C43.8312 20.3016 43.9109 20.4597 43.9563 20.6286C44.0017 20.7974 44.0119 20.9736 43.9862 21.1464C43.9605 21.3193 43.8995 21.4852 43.8068 21.6343C43.7142 21.7834 43.5918 21.9126 43.447 22.0141C40.1069 24.4261 38.4974 27.1297 38.4974 30.2113C38.4974 33.2892 40.1069 35.9964 43.447 38.4048Z" fill="black"/>
</svg>
