<svg width="43" height="48" viewBox="0 0 43 48" fill="none" xmlns="http://www.w3.org/2000/svg">
<path d="M20.0468 22.6289L0.171875 43.4519C0.395069 44.2428 0.796155 44.9723 1.34447 45.5845C1.89279 46.1967 2.57383 46.6754 3.33552 46.9841C4.09721 47.2928 4.91938 47.4232 5.7392 47.3654C6.55902 47.3076 7.35478 47.0631 8.06564 46.6507L30.4287 33.9142L20.0468 22.6289Z" fill="#EA4335"/>
<path d="M40.1497 19.086L30.4792 13.5469L19.5938 23.0992L30.5234 33.8809L40.1203 28.4011C40.9705 27.956 41.6826 27.2866 42.1795 26.4656C42.6763 25.6445 42.939 24.7032 42.939 23.7435C42.939 22.7838 42.6763 21.8425 42.1795 21.0214C41.6826 20.2004 40.9705 19.531 40.1203 19.0859L40.1497 19.086Z" fill="#FBBC04"/>
<path d="M0.177847 3.94141C0.0577838 4.38554 -0.00201691 4.84381 5.189e-05 5.30389V42.0918C0.00123743 42.5518 0.0609829 43.0097 0.177847 43.4545L20.7341 23.1647L0.177847 3.94141Z" fill="#4285F4"/>
<path d="M20.1949 23.696L30.4732 13.5512L8.13977 0.755303C7.29949 0.263215 6.3438 0.00260414 5.37003 1.0287e-05C2.95353 -0.00468618 0.829045 1.59916 0.171875 3.92475L20.1949 23.696Z" fill="#34A853"/>
</svg>
