<svg width="17" height="13" viewBox="0 0 17 13" fill="none" xmlns="http://www.w3.org/2000/svg">
<path d="M8.99886 1.05875L10.0599 -0.00124931L15.8389 5.77575C15.932 5.86832 16.0059 5.97839 16.0564 6.09964C16.1068 6.22089 16.1328 6.35092 16.1328 6.48225C16.1328 6.61358 16.1068 6.74361 16.0564 6.86486C16.0059 6.98611 15.932 7.09618 15.8389 7.18875L10.0599 12.9688L8.99986 11.9087L14.4239 6.48375L8.99886 1.05875Z" fill="white"/>
<path d="M-0.00113773 1.05875L1.05986 -0.00124931L6.83886 5.77575C6.93202 5.86832 7.00595 5.97839 7.05639 6.09964C7.10684 6.22089 7.13281 6.35092 7.13281 6.48225C7.13281 6.61358 7.10684 6.74361 7.05639 6.86486C7.00595 6.98611 6.93202 7.09618 6.83886 7.18875L1.05986 12.9688L-0.000137806 11.9087L5.42386 6.48375L-0.00113773 1.05875Z" fill="white" fill-opacity="0.7"/>
</svg>
