<svg width="309" height="105" viewBox="0 0 309 105" fill="none" xmlns="http://www.w3.org/2000/svg">
<rect x="0.570312" width="308.354" height="105" rx="9" fill="#259ADA" fill-opacity="0.3"/>
<rect x="12.5312" y="10.6328" width="285.759" height="82.4051" rx="9" fill="url(#paint0_linear_8042_939)"/>
<path d="M101.673 43.6836V33.8136H105.019C106.12 33.8136 107.049 34.0049 107.805 34.3876C108.57 34.7703 109.149 35.3303 109.541 36.0676C109.933 36.7956 110.129 37.6869 110.129 38.7416C110.129 39.7963 109.933 40.6923 109.541 41.4296C109.149 42.1669 108.57 42.7269 107.805 43.1096C107.049 43.4923 106.12 43.6836 105.019 43.6836H101.673ZM102.975 42.5776H104.921C106.237 42.5776 107.212 42.2603 107.847 41.6256C108.481 40.9909 108.799 40.0296 108.799 38.7416C108.799 37.4536 108.481 36.4969 107.847 35.8716C107.212 35.2369 106.237 34.9196 104.921 34.9196H102.975V42.5776ZM115.001 43.8096C114.31 43.8096 113.713 43.6649 113.209 43.3756C112.705 43.0769 112.313 42.6569 112.033 42.1156C111.753 41.5649 111.613 40.9116 111.613 40.1556C111.613 39.4089 111.753 38.7649 112.033 38.2236C112.313 37.6729 112.705 37.2529 113.209 36.9636C113.713 36.6649 114.31 36.5156 115.001 36.5156C115.691 36.5156 116.289 36.6649 116.793 36.9636C117.306 37.2529 117.698 37.6729 117.969 38.2236C118.249 38.7649 118.389 39.4089 118.389 40.1556C118.389 40.9116 118.249 41.5649 117.969 42.1156C117.698 42.6569 117.306 43.0769 116.793 43.3756C116.289 43.6649 115.691 43.8096 115.001 43.8096ZM115.001 42.8016C115.635 42.8016 116.144 42.5776 116.527 42.1296C116.909 41.6816 117.101 41.0236 117.101 40.1556C117.101 39.2876 116.909 38.6343 116.527 38.1956C116.144 37.7569 115.635 37.5376 115.001 37.5376C114.357 37.5376 113.843 37.7569 113.461 38.1956C113.087 38.6343 112.901 39.2876 112.901 40.1556C112.901 41.0236 113.087 41.6816 113.461 42.1296C113.843 42.5776 114.357 42.8016 115.001 42.8016ZM121.894 43.6836L119.262 36.6416H120.592L122.72 42.6756H122.356L124.54 36.6416H125.576L127.746 42.6756H127.396L129.538 36.6416H130.812L128.166 43.6836H126.962L124.722 37.5516H125.338L123.112 43.6836H121.894ZM132.199 43.6836V38.3076C132.199 38.0369 132.189 37.7616 132.171 37.4816C132.152 37.2016 132.124 36.9216 132.087 36.6416H133.319L133.459 38.1536H133.291C133.505 37.6216 133.837 37.2156 134.285 36.9356C134.733 36.6556 135.255 36.5156 135.853 36.5156C136.683 36.5156 137.309 36.7443 137.729 37.2016C138.149 37.6496 138.359 38.3496 138.359 39.3016V43.6836H137.085V39.3716C137.085 38.7276 136.959 38.2656 136.707 37.9856C136.455 37.6963 136.063 37.5516 135.531 37.5516C134.896 37.5516 134.392 37.7429 134.019 38.1256C133.655 38.5083 133.473 39.0263 133.473 39.6796V43.6836H132.199ZM140.443 43.6836V33.3796H141.717V43.6836H140.443ZM146.815 43.8096C146.125 43.8096 145.527 43.6649 145.023 43.3756C144.519 43.0769 144.127 42.6569 143.847 42.1156C143.567 41.5649 143.427 40.9116 143.427 40.1556C143.427 39.4089 143.567 38.7649 143.847 38.2236C144.127 37.6729 144.519 37.2529 145.023 36.9636C145.527 36.6649 146.125 36.5156 146.815 36.5156C147.506 36.5156 148.103 36.6649 148.607 36.9636C149.121 37.2529 149.513 37.6729 149.783 38.2236C150.063 38.7649 150.203 39.4089 150.203 40.1556C150.203 40.9116 150.063 41.5649 149.783 42.1156C149.513 42.6569 149.121 43.0769 148.607 43.3756C148.103 43.6649 147.506 43.8096 146.815 43.8096ZM146.815 42.8016C147.45 42.8016 147.959 42.5776 148.341 42.1296C148.724 41.6816 148.915 41.0236 148.915 40.1556C148.915 39.2876 148.724 38.6343 148.341 38.1956C147.959 37.7569 147.45 37.5376 146.815 37.5376C146.171 37.5376 145.658 37.7569 145.275 38.1956C144.902 38.6343 144.715 39.2876 144.715 40.1556C144.715 41.0236 144.902 41.6816 145.275 42.1296C145.658 42.5776 146.171 42.8016 146.815 42.8016ZM154.602 43.8096C153.986 43.8096 153.444 43.6649 152.978 43.3756C152.511 43.0863 152.147 42.6663 151.886 42.1156C151.624 41.5649 151.494 40.9116 151.494 40.1556C151.494 39.3996 151.624 38.7509 151.886 38.2096C152.147 37.6589 152.511 37.2389 152.978 36.9496C153.444 36.6603 153.986 36.5156 154.602 36.5156C155.227 36.5156 155.768 36.6743 156.226 36.9916C156.692 37.2996 157 37.7243 157.15 38.2656H156.982L157.136 36.6416H158.368C158.34 36.9216 158.312 37.2016 158.284 37.4816C158.265 37.7616 158.256 38.0369 158.256 38.3076V43.6836H156.982V42.0736H157.136C156.986 42.6056 156.678 43.0303 156.212 43.3476C155.754 43.6556 155.218 43.8096 154.602 43.8096ZM154.896 42.8016C155.53 42.8016 156.039 42.5776 156.422 42.1296C156.804 41.6816 156.996 41.0236 156.996 40.1556C156.996 39.2876 156.804 38.6343 156.422 38.1956C156.039 37.7569 155.53 37.5376 154.896 37.5376C154.261 37.5376 153.748 37.7569 153.356 38.1956C152.973 38.6343 152.782 39.2876 152.782 40.1556C152.782 41.0236 152.973 41.6816 153.356 42.1296C153.738 42.5776 154.252 42.8016 154.896 42.8016ZM163.078 43.8096C162.462 43.8096 161.921 43.6649 161.454 43.3756C160.988 43.0863 160.624 42.6663 160.362 42.1156C160.101 41.5649 159.97 40.9116 159.97 40.1556C159.97 39.3996 160.101 38.7509 160.362 38.2096C160.624 37.6589 160.988 37.2389 161.454 36.9496C161.921 36.6603 162.462 36.5156 163.078 36.5156C163.694 36.5156 164.231 36.6696 164.688 36.9776C165.155 37.2856 165.468 37.7103 165.626 38.2516H165.458V33.3796H166.732V43.6836H165.472V42.0456H165.626C165.477 42.5963 165.169 43.0303 164.702 43.3476C164.245 43.6556 163.704 43.8096 163.078 43.8096ZM163.372 42.8016C164.007 42.8016 164.516 42.5776 164.898 42.1296C165.29 41.6816 165.486 41.0236 165.486 40.1556C165.486 39.2876 165.29 38.6343 164.898 38.1956C164.516 37.7569 164.007 37.5376 163.372 37.5376C162.738 37.5376 162.224 37.7569 161.832 38.1956C161.45 38.6343 161.258 39.2876 161.258 40.1556C161.258 41.0236 161.45 41.6816 161.832 42.1296C162.224 42.5776 162.738 42.8016 163.372 42.8016ZM175.526 43.8096C174.835 43.8096 174.238 43.6649 173.734 43.3756C173.23 43.0769 172.838 42.6569 172.558 42.1156C172.278 41.5649 172.138 40.9116 172.138 40.1556C172.138 39.4089 172.278 38.7649 172.558 38.2236C172.838 37.6729 173.23 37.2529 173.734 36.9636C174.238 36.6649 174.835 36.5156 175.526 36.5156C176.217 36.5156 176.814 36.6649 177.318 36.9636C177.831 37.2529 178.223 37.6729 178.494 38.2236C178.774 38.7649 178.914 39.4089 178.914 40.1556C178.914 40.9116 178.774 41.5649 178.494 42.1156C178.223 42.6569 177.831 43.0769 177.318 43.3756C176.814 43.6649 176.217 43.8096 175.526 43.8096ZM175.526 42.8016C176.161 42.8016 176.669 42.5776 177.052 42.1296C177.435 41.6816 177.626 41.0236 177.626 40.1556C177.626 39.2876 177.435 38.6343 177.052 38.1956C176.669 37.7569 176.161 37.5376 175.526 37.5376C174.882 37.5376 174.369 37.7569 173.986 38.1956C173.613 38.6343 173.426 39.2876 173.426 40.1556C173.426 41.0236 173.613 41.6816 173.986 42.1296C174.369 42.5776 174.882 42.8016 175.526 42.8016ZM180.625 43.6836V38.3076C180.625 38.0369 180.615 37.7616 180.597 37.4816C180.578 37.2016 180.55 36.9216 180.513 36.6416H181.745L181.885 38.1536H181.717C181.931 37.6216 182.263 37.2156 182.711 36.9356C183.159 36.6556 183.681 36.5156 184.279 36.5156C185.109 36.5156 185.735 36.7443 186.155 37.2016C186.575 37.6496 186.785 38.3496 186.785 39.3016V43.6836H185.511V39.3716C185.511 38.7276 185.385 38.2656 185.133 37.9856C184.881 37.6963 184.489 37.5516 183.957 37.5516C183.322 37.5516 182.818 37.7429 182.445 38.1256C182.081 38.5083 181.899 39.0263 181.899 39.6796V43.6836H180.625ZM104.069 65.8396V63.3556H113.429V65.8396H104.069ZM110.783 55.1836L117.101 68.6836H113.843L108.317 56.4256H109.325L103.799 68.6836H100.541L106.859 55.1836H110.783ZM118.302 58.4416H121.308V61.6996L121.182 62.0956V64.5616L121.308 65.2996V71.6536H118.302V58.4416ZM120.264 63.5716C120.468 62.4796 120.822 61.5316 121.326 60.7276C121.842 59.9116 122.484 59.2816 123.252 58.8376C124.032 58.3936 124.896 58.1716 125.844 58.1716C126.852 58.1716 127.734 58.3996 128.49 58.8556C129.258 59.2996 129.858 59.9296 130.29 60.7456C130.722 61.5496 130.938 62.4916 130.938 63.5716C130.938 64.6396 130.722 65.5816 130.29 66.3976C129.858 67.2016 129.258 67.8316 128.49 68.2876C127.734 68.7316 126.852 68.9536 125.844 68.9536C124.884 68.9536 124.02 68.7316 123.252 68.2876C122.496 67.8436 121.86 67.2196 121.344 66.4156C120.828 65.5996 120.468 64.6516 120.264 63.5716ZM127.896 63.5716C127.896 62.9716 127.77 62.4436 127.518 61.9876C127.278 61.5196 126.942 61.1596 126.51 60.9076C126.078 60.6436 125.58 60.5116 125.016 60.5116C124.452 60.5116 123.918 60.6436 123.414 60.9076C122.91 61.1596 122.466 61.5196 122.082 61.9876C121.71 62.4436 121.416 62.9716 121.2 63.5716C121.416 64.1716 121.71 64.6996 122.082 65.1556C122.466 65.6116 122.91 65.9716 123.414 66.2356C123.918 66.4876 124.452 66.6136 125.016 66.6136C125.58 66.6136 126.078 66.4876 126.51 66.2356C126.942 65.9716 127.278 65.6116 127.518 65.1556C127.77 64.6996 127.896 64.1716 127.896 63.5716ZM132.698 58.4416H135.704V61.6996L135.578 62.0956V64.5616L135.704 65.2996V71.6536H132.698V58.4416ZM134.66 63.5716C134.864 62.4796 135.218 61.5316 135.722 60.7276C136.238 59.9116 136.88 59.2816 137.648 58.8376C138.428 58.3936 139.292 58.1716 140.24 58.1716C141.248 58.1716 142.13 58.3996 142.886 58.8556C143.654 59.2996 144.254 59.9296 144.686 60.7456C145.118 61.5496 145.334 62.4916 145.334 63.5716C145.334 64.6396 145.118 65.5816 144.686 66.3976C144.254 67.2016 143.654 67.8316 142.886 68.2876C142.13 68.7316 141.248 68.9536 140.24 68.9536C139.28 68.9536 138.416 68.7316 137.648 68.2876C136.892 67.8436 136.256 67.2196 135.74 66.4156C135.224 65.5996 134.864 64.6516 134.66 63.5716ZM142.292 63.5716C142.292 62.9716 142.166 62.4436 141.914 61.9876C141.674 61.5196 141.338 61.1596 140.906 60.9076C140.474 60.6436 139.976 60.5116 139.412 60.5116C138.848 60.5116 138.314 60.6436 137.81 60.9076C137.306 61.1596 136.862 61.5196 136.478 61.9876C136.106 62.4436 135.812 62.9716 135.596 63.5716C135.812 64.1716 136.106 64.6996 136.478 65.1556C136.862 65.6116 137.306 65.9716 137.81 66.2356C138.314 66.4876 138.848 66.6136 139.412 66.6136C139.976 66.6136 140.474 66.4876 140.906 66.2356C141.338 65.9716 141.674 65.6116 141.914 65.1556C142.166 64.6996 142.292 64.1716 142.292 63.5716ZM146.574 64.2736H149.67C149.742 64.7296 149.94 65.1316 150.264 65.4796C150.6 65.8156 151.044 66.0796 151.596 66.2716C152.16 66.4516 152.808 66.5416 153.54 66.5416C154.608 66.5416 155.448 66.3916 156.06 66.0916C156.684 65.7796 156.996 65.3476 156.996 64.7956C156.996 64.3636 156.816 64.0336 156.456 63.8056C156.108 63.5656 155.454 63.3916 154.494 63.2836L151.776 62.9776C150.024 62.7856 148.752 62.3776 147.96 61.7536C147.18 61.1176 146.79 60.2356 146.79 59.1076C146.79 58.2196 147.048 57.4636 147.564 56.8396C148.092 56.2156 148.83 55.7416 149.778 55.4176C150.726 55.0816 151.842 54.9136 153.126 54.9136C154.374 54.9136 155.484 55.0996 156.456 55.4716C157.428 55.8316 158.202 56.3416 158.778 57.0016C159.354 57.6496 159.666 58.4116 159.714 59.2876H156.618C156.558 58.8916 156.378 58.5496 156.078 58.2616C155.79 57.9616 155.388 57.7336 154.872 57.5776C154.356 57.4096 153.75 57.3256 153.054 57.3256C152.082 57.3256 151.308 57.4696 150.732 57.7576C150.156 58.0456 149.868 58.4536 149.868 58.9816C149.868 59.3896 150.036 59.7076 150.372 59.9356C150.72 60.1516 151.326 60.3136 152.19 60.4216L155.016 60.7636C156.264 60.8956 157.254 61.1116 157.986 61.4116C158.73 61.6996 159.258 62.0896 159.57 62.5816C159.894 63.0736 160.056 63.6976 160.056 64.4536C160.056 65.3536 159.78 66.1456 159.228 66.8296C158.688 67.5016 157.926 68.0236 156.942 68.3956C155.958 68.7676 154.806 68.9536 153.486 68.9536C152.142 68.9536 150.96 68.7616 149.94 68.3776C148.92 67.9816 148.116 67.4356 147.528 66.7396C146.94 66.0316 146.622 65.2096 146.574 64.2736ZM160.729 60.7096V59.3776L162.871 58.6756L164.149 55.7416H165.877V58.4416H170.413V60.7096H165.877V64.4356C165.877 65.2276 166.039 65.7856 166.363 66.1096C166.699 66.4216 167.275 66.5776 168.091 66.5776C168.607 66.5776 169.063 66.5296 169.459 66.4336C169.855 66.3376 170.233 66.1996 170.593 66.0196V68.3596C170.245 68.5036 169.783 68.6356 169.207 68.7556C168.631 68.8876 168.037 68.9536 167.425 68.9536C166.357 68.9536 165.487 68.7856 164.815 68.4496C164.155 68.1016 163.663 67.6216 163.339 67.0096C163.027 66.3976 162.871 65.6836 162.871 64.8676V60.7096H160.729ZM177.731 68.9536C176.459 68.9536 175.343 68.7316 174.383 68.2876C173.423 67.8316 172.673 67.2016 172.133 66.3976C171.593 65.5816 171.323 64.6396 171.323 63.5716C171.323 62.4916 171.593 61.5496 172.133 60.7456C172.673 59.9296 173.423 59.2996 174.383 58.8556C175.343 58.3996 176.459 58.1716 177.731 58.1716C179.003 58.1716 180.119 58.3996 181.079 58.8556C182.039 59.2996 182.783 59.9296 183.311 60.7456C183.851 61.5496 184.121 62.4916 184.121 63.5716C184.121 64.6396 183.851 65.5816 183.311 66.3976C182.783 67.2016 182.039 67.8316 181.079 68.2876C180.119 68.7316 179.003 68.9536 177.731 68.9536ZM177.731 66.6676C178.427 66.6676 179.021 66.5416 179.513 66.2896C180.017 66.0376 180.401 65.6836 180.665 65.2276C180.941 64.7596 181.079 64.2076 181.079 63.5716C181.079 62.9236 180.941 62.3716 180.665 61.9156C180.401 61.4476 180.017 61.0876 179.513 60.8356C179.021 60.5836 178.427 60.4576 177.731 60.4576C177.047 60.4576 176.453 60.5836 175.949 60.8356C175.445 61.0876 175.055 61.4476 174.779 61.9156C174.515 62.3716 174.383 62.9236 174.383 63.5716C174.383 64.2076 174.515 64.7596 174.779 65.2276C175.055 65.6836 175.445 66.0376 175.949 66.2896C176.453 66.5416 177.047 66.6676 177.731 66.6676ZM185.351 58.4416H188.393L189.005 62.1316V68.6836H185.999V61.8076L185.351 58.4416ZM193.991 58.3336V60.9256C193.679 60.8536 193.367 60.7996 193.055 60.7636C192.743 60.7276 192.449 60.7096 192.173 60.7096C191.573 60.7096 191.033 60.8356 190.553 61.0876C190.073 61.3396 189.695 61.7296 189.419 62.2576C189.143 62.7856 189.005 63.4516 189.005 64.2556L188.375 63.4996C188.447 62.7676 188.579 62.0836 188.771 61.4476C188.963 60.7996 189.227 60.2356 189.563 59.7556C189.911 59.2636 190.337 58.8796 190.841 58.6036C191.345 58.3156 191.945 58.1716 192.641 58.1716C192.869 58.1716 193.097 58.1896 193.325 58.2256C193.565 58.2496 193.787 58.2856 193.991 58.3336ZM200.826 68.9536C199.614 68.9536 198.528 68.7316 197.568 68.2876C196.62 67.8316 195.87 67.1956 195.318 66.3796C194.778 65.5636 194.508 64.6156 194.508 63.5356C194.508 62.4676 194.766 61.5316 195.282 60.7276C195.81 59.9236 196.53 59.2996 197.442 58.8556C198.354 58.3996 199.392 58.1716 200.556 58.1716C201.744 58.1716 202.764 58.4356 203.616 58.9636C204.468 59.4796 205.122 60.2116 205.578 61.1596C206.046 62.1076 206.28 63.2236 206.28 64.5076H196.92V62.5096H204.66L203.49 63.2296C203.442 62.6296 203.292 62.1196 203.04 61.6996C202.8 61.2796 202.47 60.9556 202.05 60.7276C201.63 60.4996 201.138 60.3856 200.574 60.3856C199.962 60.3856 199.428 60.5116 198.972 60.7636C198.528 61.0036 198.18 61.3456 197.928 61.7896C197.688 62.2216 197.568 62.7316 197.568 63.3196C197.568 64.0276 197.724 64.6336 198.036 65.1376C198.348 65.6416 198.804 66.0256 199.404 66.2896C200.004 66.5536 200.73 66.6856 201.582 66.6856C202.35 66.6856 203.124 66.5776 203.904 66.3616C204.684 66.1336 205.386 65.8156 206.01 65.4076V67.4236C205.338 67.9036 204.552 68.2816 203.652 68.5576C202.764 68.8216 201.822 68.9536 200.826 68.9536Z" fill="black"/>
<path d="M57.7692 36.8483C57.618 36.8502 57.4679 36.8232 57.3275 36.7686C57.1871 36.7141 57.0592 36.6331 56.9511 36.5303C56.8431 36.4276 56.757 36.3051 56.6978 36.1699C56.6386 36.0347 56.6075 35.8895 56.6063 35.7426C56.6063 31.4647 60.2532 28.0001 64.7435 28.0001C64.8947 27.9981 65.0448 28.0252 65.1852 28.0797C65.3256 28.1343 65.4535 28.2153 65.5616 28.318C65.6696 28.4208 65.7557 28.5433 65.8149 28.6785C65.8741 28.8136 65.9052 28.9588 65.9064 29.1057C65.9064 33.3837 62.2626 36.8483 57.7692 36.8483ZM74.7475 60.1391C75.1971 60.4584 75.3429 61.0429 75.0886 61.5189C70.9952 69.3096 67.7298 73.1899 64.7466 73.1899C63.3573 73.1899 61.9928 72.7621 60.6625 71.9306C59.707 71.3366 58.6015 71.01 57.4674 70.9867C56.3333 70.9633 55.2146 71.244 54.234 71.798C52.6215 72.7169 51.0864 73.1899 49.629 73.1899C45.241 73.1899 38 60.3349 38 53.2823C38 45.7506 42.1523 40.0085 48.4661 40.0085C51.4369 40.0065 54.0004 40.4273 56.1567 41.2708C57.0684 41.6263 58.101 41.6022 58.991 41.1955C60.74 40.3941 63.0472 40.0085 65.9064 40.0085C69.4013 40.0085 72.4496 41.6655 74.9801 44.874C75.0724 44.9893 75.1398 45.1217 75.1782 45.263C75.2166 45.4043 75.2252 45.5517 75.2035 45.6964C75.1818 45.841 75.1302 45.9799 75.0518 46.1047C74.9734 46.2294 74.8699 46.3375 74.7475 46.4225C71.9224 48.4409 70.5611 50.7034 70.5611 53.2823C70.5611 55.8581 71.9224 58.1236 74.7475 60.1391Z" fill="black"/>
<defs>
<linearGradient id="paint0_linear_8042_939" x1="20.8949" y1="-9.96845" x2="311.151" y2="67.77" gradientUnits="userSpaceOnUse">
<stop stop-color="#FDFCFF"/>
<stop offset="1" stop-color="white"/>
</linearGradient>
</defs>
</svg>
