<svg width="309" height="105" viewBox="0 0 309 105" fill="none" xmlns="http://www.w3.org/2000/svg">
<rect width="308.354" height="105" rx="9" fill="#259ADA" fill-opacity="0.3"/>
<rect x="11.9609" y="10.6328" width="285.759" height="82.4051" rx="9" fill="url(#paint0_linear_8042_930)"/>
<path d="M105.884 42.9258V33.0558H109.23C110.331 33.0558 111.26 33.2471 112.016 33.6298C112.781 34.0124 113.36 34.5724 113.752 35.3098C114.144 36.0378 114.34 36.9291 114.34 37.9838C114.34 39.0384 114.144 39.9344 113.752 40.6718C113.36 41.4091 112.781 41.9691 112.016 42.3518C111.26 42.7344 110.331 42.9258 109.23 42.9258H105.884ZM107.186 41.8198H109.132C110.448 41.8198 111.423 41.5024 112.058 40.8678C112.692 40.2331 113.01 39.2718 113.01 37.9838C113.01 36.6958 112.692 35.7391 112.058 35.1138C111.423 34.4791 110.448 34.1618 109.132 34.1618H107.186V41.8198ZM119.212 43.0518C118.521 43.0518 117.924 42.9071 117.42 42.6178C116.916 42.3191 116.524 41.8991 116.244 41.3578C115.964 40.8071 115.824 40.1538 115.824 39.3978C115.824 38.6511 115.964 38.0071 116.244 37.4658C116.524 36.9151 116.916 36.4951 117.42 36.2058C117.924 35.9071 118.521 35.7578 119.212 35.7578C119.902 35.7578 120.5 35.9071 121.004 36.2058C121.517 36.4951 121.909 36.9151 122.18 37.4658C122.46 38.0071 122.6 38.6511 122.6 39.3978C122.6 40.1538 122.46 40.8071 122.18 41.3578C121.909 41.8991 121.517 42.3191 121.004 42.6178C120.5 42.9071 119.902 43.0518 119.212 43.0518ZM119.212 42.0438C119.846 42.0438 120.355 41.8198 120.738 41.3718C121.12 40.9238 121.312 40.2658 121.312 39.3978C121.312 38.5298 121.12 37.8764 120.738 37.4378C120.355 36.9991 119.846 36.7798 119.212 36.7798C118.568 36.7798 118.054 36.9991 117.672 37.4378C117.298 37.8764 117.112 38.5298 117.112 39.3978C117.112 40.2658 117.298 40.9238 117.672 41.3718C118.054 41.8198 118.568 42.0438 119.212 42.0438ZM126.105 42.9258L123.473 35.8838H124.803L126.931 41.9178H126.567L128.751 35.8838H129.787L131.957 41.9178H131.607L133.749 35.8838H135.023L132.377 42.9258H131.173L128.933 36.7938H129.549L127.323 42.9258H126.105ZM136.41 42.9258V37.5498C136.41 37.2791 136.4 37.0038 136.382 36.7238C136.363 36.4438 136.335 36.1638 136.298 35.8838H137.53L137.67 37.3958H137.502C137.716 36.8638 138.048 36.4578 138.496 36.1778C138.944 35.8978 139.466 35.7578 140.064 35.7578C140.894 35.7578 141.52 35.9864 141.94 36.4438C142.36 36.8918 142.57 37.5918 142.57 38.5438V42.9258H141.296V38.6138C141.296 37.9698 141.17 37.5078 140.918 37.2278C140.666 36.9384 140.274 36.7938 139.742 36.7938C139.107 36.7938 138.603 36.9851 138.23 37.3678C137.866 37.7504 137.684 38.2684 137.684 38.9218V42.9258H136.41ZM144.654 42.9258V32.6218H145.928V42.9258H144.654ZM151.026 43.0518C150.335 43.0518 149.738 42.9071 149.234 42.6178C148.73 42.3191 148.338 41.8991 148.058 41.3578C147.778 40.8071 147.638 40.1538 147.638 39.3978C147.638 38.6511 147.778 38.0071 148.058 37.4658C148.338 36.9151 148.73 36.4951 149.234 36.2058C149.738 35.9071 150.335 35.7578 151.026 35.7578C151.717 35.7578 152.314 35.9071 152.818 36.2058C153.331 36.4951 153.723 36.9151 153.994 37.4658C154.274 38.0071 154.414 38.6511 154.414 39.3978C154.414 40.1538 154.274 40.8071 153.994 41.3578C153.723 41.8991 153.331 42.3191 152.818 42.6178C152.314 42.9071 151.717 43.0518 151.026 43.0518ZM151.026 42.0438C151.661 42.0438 152.169 41.8198 152.552 41.3718C152.935 40.9238 153.126 40.2658 153.126 39.3978C153.126 38.5298 152.935 37.8764 152.552 37.4378C152.169 36.9991 151.661 36.7798 151.026 36.7798C150.382 36.7798 149.869 36.9991 149.486 37.4378C149.113 37.8764 148.926 38.5298 148.926 39.3978C148.926 40.2658 149.113 40.9238 149.486 41.3718C149.869 41.8198 150.382 42.0438 151.026 42.0438ZM158.813 43.0518C158.197 43.0518 157.655 42.9071 157.189 42.6178C156.722 42.3284 156.358 41.9084 156.097 41.3578C155.835 40.8071 155.705 40.1538 155.705 39.3978C155.705 38.6418 155.835 37.9931 156.097 37.4518C156.358 36.9011 156.722 36.4811 157.189 36.1918C157.655 35.9024 158.197 35.7578 158.813 35.7578C159.438 35.7578 159.979 35.9164 160.437 36.2338C160.903 36.5418 161.211 36.9664 161.361 37.5078H161.193L161.347 35.8838H162.579C162.551 36.1638 162.523 36.4438 162.495 36.7238C162.476 37.0038 162.467 37.2791 162.467 37.5498V42.9258H161.193V41.3158H161.347C161.197 41.8478 160.889 42.2724 160.423 42.5898C159.965 42.8978 159.429 43.0518 158.813 43.0518ZM159.107 42.0438C159.741 42.0438 160.25 41.8198 160.633 41.3718C161.015 40.9238 161.207 40.2658 161.207 39.3978C161.207 38.5298 161.015 37.8764 160.633 37.4378C160.25 36.9991 159.741 36.7798 159.107 36.7798C158.472 36.7798 157.959 36.9991 157.567 37.4378C157.184 37.8764 156.993 38.5298 156.993 39.3978C156.993 40.2658 157.184 40.9238 157.567 41.3718C157.949 41.8198 158.463 42.0438 159.107 42.0438ZM167.289 43.0518C166.673 43.0518 166.132 42.9071 165.665 42.6178C165.198 42.3284 164.834 41.9084 164.573 41.3578C164.312 40.8071 164.181 40.1538 164.181 39.3978C164.181 38.6418 164.312 37.9931 164.573 37.4518C164.834 36.9011 165.198 36.4811 165.665 36.1918C166.132 35.9024 166.673 35.7578 167.289 35.7578C167.905 35.7578 168.442 35.9118 168.899 36.2198C169.366 36.5278 169.678 36.9524 169.837 37.4938H169.669V32.6218H170.943V42.9258H169.683V41.2878H169.837C169.688 41.8384 169.38 42.2724 168.913 42.5898C168.456 42.8978 167.914 43.0518 167.289 43.0518ZM167.583 42.0438C168.218 42.0438 168.726 41.8198 169.109 41.3718C169.501 40.9238 169.697 40.2658 169.697 39.3978C169.697 38.5298 169.501 37.8764 169.109 37.4378C168.726 36.9991 168.218 36.7798 167.583 36.7798C166.948 36.7798 166.435 36.9991 166.043 37.4378C165.66 37.8764 165.469 38.5298 165.469 39.3978C165.469 40.2658 165.66 40.9238 166.043 41.3718C166.435 41.8198 166.948 42.0438 167.583 42.0438ZM179.737 43.0518C179.046 43.0518 178.449 42.9071 177.945 42.6178C177.441 42.3191 177.049 41.8991 176.769 41.3578C176.489 40.8071 176.349 40.1538 176.349 39.3978C176.349 38.6511 176.489 38.0071 176.769 37.4658C177.049 36.9151 177.441 36.4951 177.945 36.2058C178.449 35.9071 179.046 35.7578 179.737 35.7578C180.428 35.7578 181.025 35.9071 181.529 36.2058C182.042 36.4951 182.434 36.9151 182.705 37.4658C182.985 38.0071 183.125 38.6511 183.125 39.3978C183.125 40.1538 182.985 40.8071 182.705 41.3578C182.434 41.8991 182.042 42.3191 181.529 42.6178C181.025 42.9071 180.428 43.0518 179.737 43.0518ZM179.737 42.0438C180.372 42.0438 180.88 41.8198 181.263 41.3718C181.646 40.9238 181.837 40.2658 181.837 39.3978C181.837 38.5298 181.646 37.8764 181.263 37.4378C180.88 36.9991 180.372 36.7798 179.737 36.7798C179.093 36.7798 178.58 36.9991 178.197 37.4378C177.824 37.8764 177.637 38.5298 177.637 39.3978C177.637 40.2658 177.824 40.9238 178.197 41.3718C178.58 41.8198 179.093 42.0438 179.737 42.0438ZM184.835 42.9258V37.5498C184.835 37.2791 184.826 37.0038 184.807 36.7238C184.789 36.4438 184.761 36.1638 184.723 35.8838H185.955L186.095 37.3958H185.927C186.142 36.8638 186.473 36.4578 186.921 36.1778C187.369 35.8978 187.892 35.7578 188.489 35.7578C189.32 35.7578 189.945 35.9864 190.365 36.4438C190.785 36.8918 190.995 37.5918 190.995 38.5438V42.9258H189.721V38.6138C189.721 37.9698 189.595 37.5078 189.343 37.2278C189.091 36.9384 188.699 36.7938 188.167 36.7938C187.533 36.7938 187.029 36.9851 186.655 37.3678C186.291 37.7504 186.109 38.2684 186.109 38.9218V42.9258H184.835ZM113.428 54.4258C114.496 54.4258 115.42 54.6118 116.2 54.9838C116.98 55.3558 117.574 55.8778 117.982 56.5498C118.402 57.2218 118.612 58.0018 118.612 58.8898C118.612 59.7778 118.402 60.5578 117.982 61.2298C117.574 61.8898 116.98 62.4118 116.2 62.7958C115.42 63.1678 114.496 63.3538 113.428 63.3538H107.47V60.8338H113.266C113.974 60.8338 114.526 60.6598 114.922 60.3118C115.33 59.9638 115.534 59.4898 115.534 58.8898C115.534 58.2778 115.33 57.8038 114.922 57.4678C114.526 57.1198 113.974 56.9458 113.266 56.9458H107.74L109.126 55.4878V67.9258H106.066V54.4258H113.428ZM120.14 54.0658H123.146V67.9258H120.14V54.0658ZM134.791 67.9258L134.359 64.1818L134.845 62.8138L134.359 61.4638L134.791 57.6838H137.905L137.311 62.8138L137.905 67.9258H134.791ZM135.583 62.8138C135.391 63.8938 135.037 64.8418 134.521 65.6578C134.017 66.4618 133.375 67.0858 132.595 67.5298C131.827 67.9738 130.963 68.1958 130.003 68.1958C129.007 68.1958 128.125 67.9738 127.357 67.5298C126.589 67.0738 125.989 66.4438 125.557 65.6398C125.137 64.8238 124.927 63.8818 124.927 62.8138C124.927 61.7338 125.137 60.7918 125.557 59.9878C125.989 59.1718 126.589 58.5418 127.357 58.0978C128.125 57.6418 129.007 57.4138 130.003 57.4138C130.963 57.4138 131.827 57.6358 132.595 58.0798C133.375 58.5238 134.023 59.1538 134.539 59.9698C135.055 60.7738 135.403 61.7218 135.583 62.8138ZM127.969 62.8138C127.969 63.4138 128.089 63.9418 128.329 64.3978C128.581 64.8538 128.923 65.2138 129.355 65.4778C129.787 65.7298 130.285 65.8558 130.849 65.8558C131.413 65.8558 131.941 65.7298 132.433 65.4778C132.937 65.2138 133.381 64.8538 133.765 64.3978C134.149 63.9418 134.449 63.4138 134.665 62.8138C134.449 62.2138 134.149 61.6858 133.765 61.2298C133.381 60.7618 132.937 60.4018 132.433 60.1498C131.941 59.8858 131.413 59.7538 130.849 59.7538C130.285 59.7538 129.787 59.8858 129.355 60.1498C128.923 60.4018 128.581 60.7618 128.329 61.2298C128.089 61.6858 127.969 62.2138 127.969 62.8138ZM142.813 71.1658C142.141 71.1658 141.535 71.0818 140.995 70.9138C140.455 70.7458 139.945 70.4998 139.465 70.1758V68.0158C139.969 68.3398 140.449 68.5738 140.905 68.7178C141.361 68.8618 141.865 68.9338 142.417 68.9338C142.909 68.9338 143.347 68.8198 143.731 68.5918C144.115 68.3758 144.433 67.9858 144.685 67.4218L148.951 57.6838H152.137L147.025 68.3938C146.713 69.0658 146.335 69.6058 145.891 70.0138C145.447 70.4218 144.961 70.7158 144.433 70.8958C143.917 71.0758 143.377 71.1658 142.813 71.1658ZM143.461 67.2778L138.943 57.6838H142.255L146.395 67.2778H143.461ZM152.578 63.5158H155.674C155.746 63.9718 155.944 64.3738 156.268 64.7218C156.604 65.0578 157.048 65.3218 157.6 65.5138C158.164 65.6938 158.812 65.7838 159.544 65.7838C160.612 65.7838 161.452 65.6338 162.064 65.3338C162.688 65.0218 163 64.5898 163 64.0378C163 63.6058 162.82 63.2758 162.46 63.0478C162.112 62.8078 161.458 62.6338 160.498 62.5258L157.78 62.2198C156.028 62.0278 154.756 61.6198 153.964 60.9958C153.184 60.3598 152.794 59.4778 152.794 58.3498C152.794 57.4618 153.052 56.7058 153.568 56.0818C154.096 55.4578 154.834 54.9838 155.782 54.6598C156.73 54.3238 157.846 54.1558 159.13 54.1558C160.378 54.1558 161.488 54.3418 162.46 54.7138C163.432 55.0738 164.206 55.5838 164.782 56.2438C165.358 56.8918 165.67 57.6538 165.718 58.5298H162.622C162.562 58.1338 162.382 57.7918 162.082 57.5038C161.794 57.2038 161.392 56.9758 160.876 56.8198C160.36 56.6518 159.754 56.5678 159.058 56.5678C158.086 56.5678 157.312 56.7118 156.736 56.9998C156.16 57.2878 155.872 57.6958 155.872 58.2238C155.872 58.6318 156.04 58.9498 156.376 59.1778C156.724 59.3938 157.33 59.5558 158.194 59.6638L161.02 60.0058C162.268 60.1378 163.258 60.3538 163.99 60.6538C164.734 60.9418 165.262 61.3318 165.574 61.8238C165.898 62.3158 166.06 62.9398 166.06 63.6958C166.06 64.5958 165.784 65.3878 165.232 66.0718C164.692 66.7438 163.93 67.2658 162.946 67.6378C161.962 68.0098 160.81 68.1958 159.49 68.1958C158.146 68.1958 156.964 68.0038 155.944 67.6198C154.924 67.2238 154.12 66.6778 153.532 65.9818C152.944 65.2738 152.626 64.4518 152.578 63.5158ZM166.733 59.9518V58.6198L168.875 57.9178L170.153 54.9838H171.881V57.6838H176.417V59.9518H171.881V63.6778C171.881 64.4698 172.043 65.0278 172.367 65.3518C172.703 65.6638 173.279 65.8198 174.095 65.8198C174.611 65.8198 175.067 65.7718 175.463 65.6758C175.859 65.5798 176.237 65.4418 176.597 65.2618V67.6018C176.249 67.7458 175.787 67.8778 175.211 67.9978C174.635 68.1298 174.041 68.1958 173.429 68.1958C172.361 68.1958 171.491 68.0278 170.819 67.6918C170.159 67.3438 169.667 66.8638 169.343 66.2518C169.031 65.6398 168.875 64.9258 168.875 64.1098V59.9518H166.733ZM183.734 68.1958C182.462 68.1958 181.346 67.9738 180.386 67.5298C179.426 67.0738 178.676 66.4438 178.136 65.6398C177.596 64.8238 177.326 63.8818 177.326 62.8138C177.326 61.7338 177.596 60.7918 178.136 59.9878C178.676 59.1718 179.426 58.5418 180.386 58.0978C181.346 57.6418 182.462 57.4138 183.734 57.4138C185.006 57.4138 186.122 57.6418 187.082 58.0978C188.042 58.5418 188.786 59.1718 189.314 59.9878C189.854 60.7918 190.124 61.7338 190.124 62.8138C190.124 63.8818 189.854 64.8238 189.314 65.6398C188.786 66.4438 188.042 67.0738 187.082 67.5298C186.122 67.9738 185.006 68.1958 183.734 68.1958ZM183.734 65.9098C184.43 65.9098 185.024 65.7838 185.516 65.5318C186.02 65.2798 186.404 64.9258 186.668 64.4698C186.944 64.0018 187.082 63.4498 187.082 62.8138C187.082 62.1658 186.944 61.6138 186.668 61.1578C186.404 60.6898 186.02 60.3298 185.516 60.0778C185.024 59.8258 184.43 59.6998 183.734 59.6998C183.05 59.6998 182.456 59.8258 181.952 60.0778C181.448 60.3298 181.058 60.6898 180.782 61.1578C180.518 61.6138 180.386 62.1658 180.386 62.8138C180.386 63.4498 180.518 64.0018 180.782 64.4698C181.058 64.9258 181.448 65.2798 181.952 65.5318C182.456 65.7838 183.05 65.9098 183.734 65.9098ZM191.355 57.6838H194.397L195.009 61.3738V67.9258H192.003V61.0498L191.355 57.6838ZM199.995 57.5758V60.1678C199.683 60.0958 199.371 60.0418 199.059 60.0058C198.747 59.9698 198.453 59.9518 198.177 59.9518C197.577 59.9518 197.037 60.0778 196.557 60.3298C196.077 60.5818 195.699 60.9718 195.423 61.4998C195.147 62.0278 195.009 62.6938 195.009 63.4978L194.379 62.7418C194.451 62.0098 194.583 61.3258 194.775 60.6898C194.967 60.0418 195.231 59.4778 195.567 58.9978C195.915 58.5058 196.341 58.1218 196.845 57.8458C197.349 57.5578 197.949 57.4138 198.645 57.4138C198.873 57.4138 199.101 57.4318 199.329 57.4678C199.569 57.4918 199.791 57.5278 199.995 57.5758ZM206.83 68.1958C205.618 68.1958 204.532 67.9738 203.572 67.5298C202.624 67.0738 201.874 66.4378 201.322 65.6218C200.782 64.8058 200.512 63.8578 200.512 62.7778C200.512 61.7098 200.77 60.7738 201.286 59.9698C201.814 59.1658 202.534 58.5418 203.446 58.0978C204.358 57.6418 205.396 57.4138 206.56 57.4138C207.748 57.4138 208.768 57.6778 209.62 58.2058C210.472 58.7218 211.126 59.4538 211.582 60.4018C212.05 61.3498 212.284 62.4658 212.284 63.7498H202.924V61.7518H210.664L209.494 62.4718C209.446 61.8718 209.296 61.3618 209.044 60.9418C208.804 60.5218 208.474 60.1978 208.054 59.9698C207.634 59.7418 207.142 59.6278 206.578 59.6278C205.966 59.6278 205.432 59.7538 204.976 60.0058C204.532 60.2458 204.184 60.5878 203.932 61.0318C203.692 61.4638 203.572 61.9738 203.572 62.5618C203.572 63.2698 203.728 63.8758 204.04 64.3798C204.352 64.8838 204.808 65.2678 205.408 65.5318C206.008 65.7958 206.734 65.9278 207.586 65.9278C208.354 65.9278 209.128 65.8198 209.908 65.6038C210.688 65.3758 211.39 65.0578 212.014 64.6498V66.6658C211.342 67.1458 210.556 67.5238 209.656 67.7998C208.768 68.0638 207.826 68.1958 206.83 68.1958Z" fill="black"/>
<path d="M57.2186 50.9414L40.4922 68.4657C40.68 69.1313 41.0176 69.7452 41.479 70.2604C41.9405 70.7757 42.5136 71.1785 43.1547 71.4383C43.7957 71.6981 44.4876 71.8078 45.1776 71.7592C45.8675 71.7106 46.5372 71.5048 47.1354 71.1577L65.9558 60.4389L57.2186 50.9414Z" fill="#EA4335"/>
<path d="M74.1355 47.9624L65.9969 43.3008L56.8359 51.3398L66.0342 60.4135L74.1108 55.8019C74.8262 55.4272 75.4255 54.8639 75.8437 54.1729C76.2618 53.482 76.4829 52.6897 76.4829 51.8821C76.4829 51.0744 76.2618 50.2822 75.8437 49.5912C75.4255 48.9003 74.8262 48.3369 74.1108 47.9623L74.1355 47.9624Z" fill="#FBBC04"/>
<path d="M40.4934 35.2148C40.3924 35.5886 40.3421 35.9743 40.3438 36.3615V67.3216C40.3448 67.7086 40.3951 68.094 40.4934 68.4683L57.7932 51.3929L40.4934 35.2148Z" fill="#4285F4"/>
<path d="M57.3432 51.8406L65.9932 43.3029L47.1978 32.5341C46.4907 32.12 45.6864 31.9006 44.8669 31.8984C42.8332 31.8945 41.0453 33.2443 40.4922 35.2014L57.3432 51.8406Z" fill="#34A853"/>
<defs>
<linearGradient id="paint0_linear_8042_930" x1="20.3246" y1="-9.96845" x2="310.581" y2="67.77" gradientUnits="userSpaceOnUse">
<stop stop-color="white"/>
<stop offset="1" stop-color="white"/>
</linearGradient>
</defs>
</svg>
